<?xml version="1.0" encoding="UTF-8"?><svg version="1.1" width="135px" height="60px" viewBox="0 0 135.0 60.0" xmlns="http://www.w3.org/2000/svg" xmlns:xlink="http://www.w3.org/1999/xlink"><path d="M96.8605292,16.4103038 C97.2768589,16.8022728 97.6403492,17.2507379 97.9950389,17.7085431 L98.5259777,18.3963613 C98.6152024,18.5102004 98.7052533,18.6231495 98.7968184,18.734472 C101.645363,16.2102682 103.926192,15.809239 105.868233,17.4296422 C105.409805,19.1151911 104.786296,20.7401928 104.549317,22.4205684 C104.054076,25.9294301 103.688254,29.4610928 103.404684,32.9948632 C103.342755,33.7647319 103.288112,34.5355587 103.235769,35.3065771 L103.17384,36.2318375 C102.877616,40.7044722 102.602674,45.1780649 101.458233,49.5468497 C100.81536,52.0013093 99.9596656,54.3772109 98.279337,56.3442275 C95.6497494,59.4227444 92.1893922,60.2483702 88.3495998,59.939503 C85.7604673,59.7319949 83.3565468,59.011177 81.4511262,57.1001091 C79.2951136,54.9374638 79.1169957,51.7876698 81.0971912,49.8177791 C81.6466916,49.2715134 82.3708588,48.9024822 82.8800958,48.5464802 C83.7563054,49.6757999 84.4346489,50.7409319 85.3001217,51.6186742 C86.4386191,52.7729025 87.9421719,53.2438675 89.544466,53.2421431 C91.9775297,53.2394606 93.5161692,51.8928609 94.4661952,49.7470769 C95.4403793,47.5468771 95.7059265,45.1960758 95.857969,42.8326285 C95.9319771,41.686256 95.8708149,40.5312613 95.7736074,39.3026902 C95.6282755,39.6136651 95.4879286,39.9271308 95.3370364,40.2354232 C94.3252731,42.3062897 92.9988795,44.1123581 90.9015365,45.1772985 C87.3696638,46.970721 83.4317052,45.7802793 81.1907558,42.3024576 C79.9105694,40.3157057 79.2776661,38.1001775 79.0293747,35.7853979 C78.5464049,31.2849805 79.1271574,26.9269255 81.0789768,22.8124005 C82.5802288,19.6482361 84.7101661,17.052372 87.9241492,15.4932824 C91.0455263,13.97922 94.630125,14.310505 96.8605292,16.4103038 Z M32.3193462,4.41065964 C32.3649782,4.65706362 32.2436126,5.09660541 32.0607014,5.19949728 C28.2163075,7.36846549 25.5464563,10.6684778 23.2963039,14.3411618 C19.4683988,20.5897829 17.1413623,27.398657 15.9200372,34.6033869 C15.2758218,38.4046378 15.0595495,42.2244744 15.4675526,46.0644295 C15.528523,46.6373283 15.3306568,46.8664879 14.8231454,47.0441057 C12.9681501,47.6923053 11.1288767,47.9776051 9.53271792,46.5173836 C8.22990725,45.3256007 7.86082549,43.6812469 7.7574826,41.9905247 C7.55827432,38.7370724 8.2109259,35.5849791 8.9178373,32.4457233 L9.05971808,31.8180255 C9.18261751,31.2755918 9.11532,30.8624915 8.83558479,30.3899937 C5.69829399,25.093266 2.9864538,19.5938203 1.29673041,13.6531083 C0.735342683,11.6795772 0.375080542,9.63534383 0.0907437917,7.6004991 C-0.137032378,5.96783319 0.0347584031,4.31811444 0.941836736,2.85942584 C2.0671047,1.05029175 3.84310694,0.786260111 5.74277553,1.00334854 C6.15058691,1.04981274 6.55183151,1.15150708 6.95171002,1.26661376 L7.75118655,1.5023198 C7.88464272,1.54045451 8.01833233,1.57698187 8.15244801,1.61035307 C8.57981593,1.71631061 8.63292535,1.95677484 8.60761689,2.37715614 C8.19443705,9.2136213 9.32392309,15.8347225 11.4488754,22.3115451 C11.4638304,22.3571471 11.5134886,22.3908696 11.6237338,22.5196281 C12.392766,20.4928308 13.0956511,18.5344364 13.8750367,16.6066989 C15.5764556,12.3967546 17.5129366,8.30579698 20.2738598,4.66319498 C21.4476357,3.11502686 22.7558148,1.70213185 24.4863769,0.743148994 C27.8318873,-1.11101226 31.6222131,0.649837376 32.3193462,4.41065964 Z M127.193489,18.840238 C127.249091,18.9276098 127.31869,19.0057847 127.426251,19.1464227 C130.115658,16.2367097 133.322931,16.3963166 135,17.8435089 C134.629193,19.0044434 134.220806,20.177449 133.87895,21.3696151 C132.585918,25.8813372 131.845262,30.4825389 131.915435,35.1820339 C131.952823,37.7202248 132.196512,40.2528593 133.477658,42.5398561 C133.736686,43.0016241 134.071831,43.4204726 134.377834,43.868445 C133.592888,45.413739 131.371303,46.4821283 129.060564,46.0590645 C126.03371,45.5043682 125.211185,43.3513032 124.789569,40.8713601 L124.753907,40.6550381 C124.730708,40.5101847 124.708659,40.3643734 124.687568,40.2179872 L124.656316,39.9976415 C124.630816,39.8137007 124.606466,39.6288019 124.582116,39.4433283 C124.440427,39.7299693 124.30008,40.0173768 124.156474,40.3026766 C123.156406,42.2953682 121.858389,44.0485536 119.883753,45.1577548 C116.298963,47.1713314 112.242898,46.0582981 109.931008,42.4898472 C108.576622,40.3990539 107.934132,38.0622397 107.741635,35.6221505 C107.361049,30.7889152 108.065276,26.1392375 110.499874,21.8674048 C112.141664,18.9873906 114.331422,16.6683957 117.534668,15.5191491 C121.575778,14.0690827 124.895213,15.2273347 127.193489,18.840238 Z M67.2576799,15.5622602 C69.429031,14.389063 71.6694052,14.0526047 73.828869,15.5890849 C75.39205,16.7013517 76.1760372,18.3740631 76.253113,20.2176861 C76.3466776,22.4611886 76.240267,24.7288334 76.018818,26.9662046 C75.6466685,30.7325834 74.7328796,34.439373 74.8128313,38.2588264 C74.8649821,40.7686598 75.2421166,41.9504793 76.736658,43.9592657 C74.808805,46.2930142 71.1831759,46.8618893 68.8891171,45.1985666 C67.5278285,44.2114179 67.0736183,42.7310779 66.8563873,41.1476545 C66.5446331,38.8744531 66.9367225,36.6411057 67.2538452,34.4058421 C67.7099728,31.1895612 68.2084728,27.9788368 68.6302805,24.7575741 C68.7186684,24.0814002 68.6400588,23.3504273 68.483223,22.6819175 C68.2504618,21.6892122 67.5470016,21.3253544 66.6665739,21.812989 C65.8881469,22.244675 65.1369457,22.8204479 64.5479487,23.488766 C62.0297566,26.3459793 60.5812305,29.7701516 59.6083885,33.4165857 C59.0238014,35.6072053 58.6875056,37.8405528 58.7931493,40.1160533 C58.8215254,40.7314885 58.6250014,41.0907478 58.0505759,41.2336851 C57.0992078,41.4703172 56.1509073,41.8450965 55.188994,41.8885909 C52.8293633,41.9958896 51.202911,40.5433324 51.1620724,38.1718377 C51.128903,36.2230236 51.2916824,34.2516001 51.5744853,32.3209885 C52.061098,29.0020073 52.7935096,25.7186646 53.248295,22.3964261 C53.3512971,21.6442702 53.3116254,20.8725989 53.2478953,20.0970838 L53.1674625,19.1656234 C53.1418631,18.8551903 53.1200058,18.545145 53.1094819,18.2364907 C53.1012375,18.0011998 53.108715,17.6321687 53.2459943,17.54518 C54.5555155,16.7189794 55.9610939,16.1219383 57.5467074,16.3051127 C59.441391,16.5239255 60.4905419,17.7239474 60.536749,19.7551517 C60.559565,20.7622274 60.4134661,21.7731352 60.3358151,22.8978563 C60.8368077,22.1793377 61.2795141,21.5196418 61.7471454,20.8787232 C63.2754315,18.7823733 64.9432976,16.8124826 67.2576799,15.5622602 Z M41.2198726,18.840238 C41.2754746,18.9276098 41.3448811,19.0057847 41.4526338,19.1464227 C44.1420415,16.2367097 47.349314,16.3963166 49.0261915,17.8435089 C48.6555759,19.0044434 48.2471893,20.177449 47.9053333,21.3696151 C46.6123009,25.8813372 45.8716449,30.4825389 45.9418184,35.1820339 C45.9792059,37.7202248 46.222704,40.2528593 47.5040408,42.5398561 C47.7628773,43.0016241 48.0982145,43.4204726 48.4042168,43.868445 C47.6190792,45.413739 45.3974947,46.4821283 43.086947,46.0590645 C40.0600931,45.5043682 39.2373763,43.3513032 38.8159521,40.8713601 L38.7802902,40.6550381 C38.7570907,40.5101847 38.7350417,40.3643734 38.7139513,40.2179872 L38.6826992,39.9976415 C38.657199,39.8137007 38.6326575,39.6288019 38.6084994,39.4433283 C38.4666186,39.7299693 38.3262717,40.0173768 38.1826653,40.3026766 C37.1825976,42.2953682 35.8847719,44.0485536 33.9101366,45.1577548 C30.3251544,47.1713314 26.2692814,46.0582981 23.9573916,42.4898472 C22.6028136,40.3990539 21.9603238,38.0622397 21.7680178,35.6221505 C21.3872405,30.7889152 22.0916594,26.1392375 24.5262569,21.8674048 C26.1680475,18.9873906 28.3578048,16.6683957 31.561051,15.5191491 C35.6021607,14.0690827 38.921404,15.2273347 41.2198726,18.840238 Z M119.364546,21.195063 C118.563112,21.9022769 117.830892,22.7742711 117.320888,23.710453 C115.833632,26.4389077 115.384407,29.437717 115.338967,32.5101026 C115.341459,34.3341819 115.457648,36.1425496 116.192169,37.8413192 C117.077006,39.888235 119.00716,40.3268188 120.530078,38.7292166 C121.303712,37.9177696 121.94601,36.9108855 122.40693,35.8840745 C124.06521,32.1924216 124.678173,28.2417188 125.002582,24.244456 C125.130466,22.6698464 124.285125,21.5204082 123.003788,20.7689336 C121.744692,20.0299132 120.415806,20.2682698 119.364546,21.195063 Z M33.3907379,21.195063 C32.5893032,21.9022769 31.8572751,22.7742711 31.3470794,23.710453 C29.8598238,26.4389077 29.4105985,29.437717 29.3653501,32.5101026 C29.3676508,34.3341819 29.4840314,36.1425496 30.2183603,37.8413192 C31.1033896,39.888235 33.0333517,40.3268188 34.556461,38.7292166 C35.329903,37.9177696 35.9722011,36.9108855 36.4333137,35.8840745 C38.0914015,32.1924216 38.7045565,28.2417188 39.0287733,24.244456 C39.1566577,22.6698464 38.3113167,21.5204082 37.0301716,20.7689336 C35.7710755,20.0299132 34.4419977,20.2682698 33.3907379,21.195063 Z M90.7679002,20.7796634 C89.9183411,21.5163845 89.1437487,22.4360884 88.606519,23.4230455 C87.1244401,26.1470933 86.6825006,29.1460942 86.6805833,32.2200127 C86.6805833,32.7314064 86.6453049,33.2456741 86.6872939,33.7534272 C86.8128776,35.2810936 86.950732,36.8156578 87.7759413,38.1647484 C88.6977829,39.6717214 90.1836965,39.9819298 91.5022291,38.8234862 C92.2095239,38.2019197 92.8316903,37.4008194 93.2671109,36.5625476 C95.323807,32.6024562 95.947699,28.2637534 96.341514,23.8915197 C96.4832031,22.3172933 95.5824518,21.1626818 94.289036,20.4113987 C93.0807486,19.7099329 91.7802387,19.9013463 90.7679002,20.7796634 Z"></path><fill="#FA3B13"></svg>